<svg width="48" height="38" viewBox="0 0 48 38" fill="none" xmlns="http://www.w3.org/2000/svg">
<path d="M48 12.1607V33.4286C48 34.6071 47.5804 35.6161 46.7411 36.4554C45.9018 37.2946 44.8929 37.7143 43.7143 37.7143H4.28571C3.10714 37.7143 2.09821 37.2946 1.25893 36.4554C0.419643 35.6161 0 34.6071 0 33.4286V12.1607C0.785714 13.0357 1.6875 13.8125 2.70536 14.4911C9.16964 18.8839 13.6071 21.9643 16.0179 23.7321C17.0357 24.4821 17.8616 25.067 18.4955 25.4866C19.1295 25.9063 19.9732 26.3348 21.0268 26.7723C22.0804 27.2098 23.0625 27.4286 23.9732 27.4286H24.0268C24.9375 27.4286 25.9196 27.2098 26.9732 26.7723C28.0268 26.3348 28.8705 25.9063 29.5045 25.4866C30.1384 25.067 30.9643 24.4821 31.9821 23.7321C35.0179 21.5357 39.4643 18.4554 45.3214 14.4911C46.3393 13.7946 47.2321 13.0179 48 12.1607ZM48 4.28571C48 5.69643 47.5625 7.04464 46.6875 8.33036C45.8125 9.61607 44.7232 10.7143 43.4196 11.625C36.7054 16.2857 32.5268 19.1875 30.8839 20.3304C30.7054 20.4554 30.3259 20.7277 29.7455 21.1473C29.1652 21.567 28.683 21.9063 28.2991 22.1652C27.9152 22.4241 27.4509 22.7143 26.9063 23.0357C26.3616 23.3571 25.8482 23.5982 25.3661 23.7589C24.8839 23.9196 24.4375 24 24.0268 24H23.9732C23.5625 24 23.1161 23.9196 22.6339 23.7589C22.1518 23.5982 21.6384 23.3571 21.0938 23.0357C20.5491 22.7143 20.0848 22.4241 19.7009 22.1652C19.317 21.9063 18.8348 21.567 18.2545 21.1473C17.6741 20.7277 17.2946 20.4554 17.1161 20.3304C15.4911 19.1875 13.1518 17.558 10.0982 15.442C7.04464 13.3259 5.21429 12.0536 4.60714 11.625C3.5 10.875 2.45536 9.84375 1.47321 8.53125C0.491071 7.21875 0 6 0 4.875C0 3.48214 0.370536 2.32143 1.11161 1.39286C1.85268 0.464286 2.91071 0 4.28571 0H43.7143C44.875 0 45.8795 0.419643 46.7277 1.25893C47.5759 2.09821 48 3.10714 48 4.28571Z" fill="white"/>
</svg>
