<svg width="48" height="48" viewBox="0 0 48 48" fill="none" xmlns="http://www.w3.org/2000/svg">
<g clip-path="url(#clip0_2216_14)">
<path d="M13.71 0C6.15375 0 0 6.07125 0 13.53C0 15.8175 0.59625 18.0487 1.71 20.04C1.4475 21.42 1.32 22.8412 1.32 24.24C1.32 36.72 11.5912 46.86 24.24 46.86C25.5375 46.86 26.835 46.7737 28.11 46.56C30.0075 47.5087 32.1412 48 34.29 48C41.8462 48 48 41.9287 48 34.47C48 32.4675 47.5575 30.555 46.71 28.77C47.0175 27.2962 47.19 25.7737 47.19 24.24C47.19 11.7637 36.8887 1.62 24.24 1.62C23.0512 1.62 21.8512 1.71 20.67 1.89C18.5625 0.65625 16.1737 0 13.71 0ZM24.09 9C26.055 9 27.7762 9.21375 29.22 9.66C30.6675 10.1025 31.8937 10.6912 32.85 11.43C33.8175 12.1762 34.5562 12.9712 35.01 13.8C35.4675 14.6362 35.7 15.4875 35.7 16.29C35.7 17.0662 35.37 17.745 34.77 18.36C34.17 18.975 33.4162 19.29 32.52 19.29C31.7062 19.29 31.0725 19.1025 30.63 18.72C30.2175 18.36 29.7825 17.8125 29.31 17.01C28.7625 15.9825 28.1212 15.1462 27.36 14.58C26.6212 14.0287 25.365 13.77 23.67 13.77C22.095 13.77 20.8087 14.055 19.86 14.67C18.9412 15.2625 18.51 15.9637 18.51 16.77C18.51 17.265 18.6637 17.6737 18.96 18.03C19.275 18.405 19.6912 18.7162 20.25 18.99C20.8275 19.275 21.4237 19.5187 22.02 19.68C22.6312 19.845 23.6737 20.1075 25.08 20.43C26.8575 20.8087 28.4925 21.2062 29.94 21.66C31.4025 22.125 32.6587 22.7062 33.69 23.37C34.74 24.045 35.5875 24.9112 36.18 25.95C36.7725 26.9887 37.05 28.2637 37.05 29.76C37.0462 31.545 36.5437 33.165 35.52 34.59C34.5 36.0112 32.9962 37.155 31.05 37.95C29.1225 38.7375 26.8087 39.12 24.18 39.12C21.0225 39.12 18.3825 38.5837 16.32 37.5C14.8425 36.7162 13.6087 35.6325 12.69 34.32C11.7525 32.9925 11.28 31.6912 11.28 30.42C11.28 29.6287 11.6025 28.9462 12.21 28.38C12.8137 27.825 13.5712 27.54 14.49 27.54C15.2437 27.54 15.9112 27.7575 16.44 28.2C16.95 28.6237 17.3812 29.2537 17.73 30.06C18.12 30.9412 18.5362 31.6612 18.99 32.25C19.4175 32.8087 20.0287 33.2925 20.82 33.66C21.615 34.035 22.7062 34.23 24.03 34.23C25.8487 34.23 27.3225 33.8437 28.44 33.09C29.535 32.355 30.09 31.4737 30.09 30.39C30.09 29.535 29.79 28.845 29.22 28.32C28.62 27.7687 27.8325 27.3525 26.88 27.06C25.8787 26.7562 24.5362 26.4187 22.86 26.07C20.58 25.5862 18.6412 25.005 17.1 24.36C15.5212 23.6962 14.25 22.7737 13.32 21.63C12.375 20.4637 11.88 19.0275 11.88 17.31C11.88 15.6712 12.3862 14.1712 13.38 12.9C14.3587 11.64 15.7912 10.6612 17.64 9.99C19.4625 9.3225 21.6375 9 24.09 9Z" fill="white"/>
</g>
<defs>
<clipPath id="clip0_2216_14">
<rect width="48" height="48" fill="white"/>
</clipPath>
</defs>
</svg>
