<svg width="48" height="48" viewBox="0 0 48 48" fill="none" xmlns="http://www.w3.org/2000/svg">
<path d="M17.2701 24.3024H14.4375C13.7063 24.3024 13.1136 23.7096 13.1136 22.9785V18.1045C13.1136 17.3036 13.6155 16.5957 14.3698 16.3284C16.2062 15.6797 19.4646 13.7515 20.0014 8.18015C20.0817 7.3592 20.7547 6.71997 21.5809 6.71997H26.8564C27.5759 6.71997 28.1602 7.3032 28.1602 8.02378V15.7019H33.4991C34.2302 15.7019 34.823 16.2946 34.823 17.0258V22.9795C34.823 23.7107 34.2302 24.3034 33.4991 24.3034H28.1602V32.906C28.1602 34.8607 29.1037 35.6098 30.0039 35.6098C30.7118 35.6098 31.9354 35.2865 32.8408 35.0414C33.5931 34.8374 34.1045 35.0688 34.3665 35.8306C34.6286 36.5924 36.0549 40.6454 36.0549 40.6454C36.3148 41.3882 36.0486 42.206 35.4051 42.6592C34.188 43.5172 31.8984 44.6921 28.4878 44.6921C23.1901 44.6921 17.2701 42.338 17.2701 33.5537C17.2701 31.8083 17.2701 24.3024 17.2701 24.3024Z" fill="white"/>
</svg>
