<svg width="48" height="48" viewBox="0 0 48 48" fill="none" xmlns="http://www.w3.org/2000/svg">
<g clip-path="url(#clip0_2214_2)">
<path d="M24.0001 0C10.7667 0 0.000154876 10.7666 0.000154876 23.9999C0.000154876 28.1321 1.06763 32.1954 3.09197 35.7808L0.0387634 46.6746C-0.0614102 47.0325 0.0356331 47.4165 0.294415 47.6826C0.493719 47.8882 0.765022 47.9998 1.04363 47.9998C1.12711 47.9998 1.21163 47.9894 1.29406 47.9696L12.6638 45.1532C16.1354 47.0169 20.0453 47.9998 24.0001 47.9998C37.2334 47.9998 48 37.2333 48 23.9999C48 10.7666 37.2334 0 24.0001 0ZM36.0731 32.4688C35.5597 33.89 33.0971 35.187 31.9138 35.3613C30.8515 35.5168 29.5075 35.5835 28.0321 35.1202C27.1378 34.8385 25.99 34.4649 24.5197 33.8378C18.3392 31.202 14.3031 25.057 13.9942 24.6511C13.6864 24.2451 11.4784 21.3526 11.4784 18.3589C11.4784 15.3652 13.0697 13.8928 13.6352 13.2834C14.2008 12.674 14.8676 12.5217 15.2787 12.5217C15.6898 12.5217 16.0999 12.5269 16.4599 12.5436C16.8387 12.5624 17.3469 12.4007 17.8467 13.5881C18.3601 14.8069 19.5924 17.8006 19.7448 18.1064C19.8992 18.4111 20.0015 18.7669 19.797 19.1728C19.5924 19.5787 19.4902 19.8323 19.1813 20.1881C18.8724 20.5439 18.5344 20.9811 18.2568 21.2545C17.9479 21.5582 17.6276 21.8869 17.9865 22.4963C18.3455 23.1057 19.582 25.0977 21.4143 26.7109C23.7674 28.7832 25.7531 29.426 26.3688 29.7307C26.9844 30.0354 27.3444 29.9843 27.7034 29.5783C28.0623 29.1714 29.2435 27.8013 29.6536 27.193C30.0637 26.5846 30.4748 26.6848 31.0404 26.8883C31.606 27.0907 34.6352 28.562 35.2508 28.8667C35.8665 29.1714 36.2776 29.3237 36.432 29.5773C36.5865 29.8298 36.5865 31.0486 36.0731 32.4688Z" fill="white"/>
</g>
<defs>
<clipPath id="clip0_2214_2">
<rect width="48" height="48" fill="white"/>
</clipPath>
</defs>
</svg>
