<svg width="48" height="48" viewBox="0 0 48 48" fill="none" xmlns="http://www.w3.org/2000/svg">
<path d="M9.187 12.901L12.999 19L7.187 28.963C6.66 29.866 7.311 31 8.356 31H12.857C13.569 31 14.227 30.622 14.585 30.007L20.39 20.043C20.764 19.402 20.751 18.606 20.358 17.976L16.585 11.94C16.221 11.355 15.58 11 14.89 11H10.24C9.264 11 8.669 12.074 9.187 12.901ZM32.431 5.047L20.506 27.047C20.178 27.652 20.184 28.384 20.523 28.983L28.425 42.983C28.779 43.611 29.445 44 30.166 44H34.638C35.678 44 36.334 42.88 35.826 41.973L27.999 28L39.83 6.158C40.357 5.184 39.652 4 38.544 4H34.189C33.456 4 32.781 4.402 32.431 5.047Z" fill="white"/>
</svg>
