<svg xmlns="http://www.w3.org/2000/svg" width="1000" height="1000" viewBox="0 0 1000 1000">
  <defs>
    <style>
      .cls-1 {
        fill: #0b3753;
      }

      .cls-1, .cls-2 {
        fill-rule: evenodd;
      }

      .cls-2 {
        fill: #d02d3f;
      }
    </style>
  </defs>
  <path id="Farbf端llung_7" data-name="Farbf端llung 7" class="cls-1" d="M453,703V661c22.079,0.833,47.241-.174,53-16,3.021-6.532-.485-13.073-3-17-28.9-9.446-41.034,5.693-60,8l-21-37c30.862-19.441,106.018-33.459,132,2,24.053,32.827-8.306,72.313-37,77q0.5,1,1,2c38.523,1.012,65.1,42.7,41,79-22.668,34.138-94.888,36.6-138,19q0.5-23,1-46c16.21,8.237,73.974,26.333,85,0V715C495.372,702.944,477.587,702.594,453,703ZM591,819h31V939H598l-6-11-2,1c-14,31.555-48.354,2.693-53-22-8.453-44.927,25.4-73.671,55-45Q591.5,840.5,591,819Zm-391,5c15.46-.339,31.5,2.678,41,9l-9,23c-12.5-2.751-22.654-8.272-37-5l-1,3q-0.5,2.5-1,5c14.418,9.6,41.414,16.858,47,35,14.315,46.494-49.6,55.824-79,39q0.5-13.5,1-27c11.963,6.1,32.787,14.075,47,6l1-3c-3.178-14.852-23.389-15.466-34-23-14.621-10.381-19.562-40.656-3-53C180.569,827.359,190.08,827.93,200,824Zm91,10v17l22,1v22H291q0.5,19.5,1,39l4,3,18-2v22c-52.495,16.931-55.385-10.366-54-62H250c-0.326-5.267-.471-10.518,2-13,8.2-9.4,13.532-13.605,19-27h20ZM520,939H490c0.4-21.024,2.907-50.633-5-64l-2-1-8,1c-14.617,6.583-10.543,42.895-10,64H435V851h22c1.708,4.12,2.9,8.952,7,11,7.824-17.149,41.447-14.176,51-1C525.087,874.912,520.672,916.435,520,939Zm203-35H669v1l6,11c15.464,4.734,28.93-.042,43-3v21c-48.131,24.355-104.343-16.692-73-67,13.992-22.458,61.045-22.243,74,1C723.706,876.444,723.441,890.8,723,904Zm103,35H795c0.4-21.015,2.914-50.671-5-64l-2-1-9,1c-12.639,9.852-9.419,41.656-9,64H740V851h23c0.985,4.9,1.831,8.965,6,11,8.275-17.724,42.824-13.834,52,0C830.721,876.656,826.689,916.152,826,939ZM329,851h30c-0.506,17.13-4.8,57.3,6,64,4.2,2.313,6.915,1.306,12,0,9.125-13.724,7.251-40.878,7-64h30v88H391l-4-11-8,8C320.238,955.861,327.741,903.981,329,851Zm366,33c-0.133-8.914-7.449-16.729-17-12-5.2,2.286-7.024,5.493-8,12h25Zm-119-9c-10.814,10.077-9.661,29.8-1,41,21.845,2.663,24.792-31.146,12-39C584.263,875.171,581.133,874.9,576,875Z"/>
  <path id="Farbf端llung_6" data-name="Farbf端llung 6" class="cls-2" d="M340,21c74.022,2.212,42.4,73.876,26,114-51.676,126.449-71.022,287.772-148,390-24.257-1.579-38.122-8.554-49-23-1.39-57.4,26.355-98.38,43-140l71-207L324,31Zm221,0c24.644,0.968,38.714,9.05,50,23-4.309,18.244-3.184,35.862-8,52-9.731,32.606-25.13,61.677-37,92L455,515c-73.774,29.711-68.182-38.21-48-89C458.039,297.558,485.983,126.28,561,21Zm224,0c64.108,1.911,49.768,57,33,99-37.1,92.936-62.1,199.71-99,293-14.647,37.026-27.434,89.608-57,112-68.338-3.988-45.745-64.331-28-105C689.112,293.69,708.168,126.326,785,21Z"/>
</svg>
