<svg xmlns="http://www.w3.org/2000/svg" width="1000" height="1000" viewBox="0 0 1000 1000">
  <defs>
    <style>
      .cls-1 {
        fill: #0d3653;
      }

      .cls-1, .cls-2 {
        stroke: #636363;
        stroke-width: 8.92px;
      }

      .cls-1, .cls-2, .cls-3 {
        fill-rule: evenodd;
      }

      .cls-2 {
        fill: #fff;
      }

      .cls-3 {
        fill: #ce1f40;
      }
    </style>
  </defs>
  <path id="Rechteck_1" data-name="Rechteck 1" class="cls-1" d="M0,0H1000V1000H0V0Z"/>
  <path id="Form_1" data-name="Form 1" class="cls-2" d="M686,453l93-1,35-48,20-179L659,105,548,69,141,62l-8,375,22,18Z"/>
  <path id="Farbf端llung_1" data-name="Farbf端llung 1" class="cls-3" d="M137,52H579c96.406,0,197.9-1.127,291,2,2.733,4.1,9.113,7.611,11,12V454h-1c-5.835,17.235-26.191,14-49,14H131c-2.213-3.259-7.057-3.909-9-7-2.066-3.285-1.306-4.643-4-7V66c6.195-4.664,5.864-11.7,17-12Zm15,25c-1.18.8-1.681,0.773-4,1l-1,2c-4.627,6.085-2,25.205-2,35v72c0,11.508-1.322,26.611,2,35,9.69,3.182,26.4,1,38,1H533q0.5-1,1-2c4.943-6.545,2-27.606,2-38,0-34.306,1.413-71.369-1-104h-2c-5.906-3.912-20.819-2-30-2H152Zm3,164c-7.959,9.847-11.459,8.453-9,27,3.6,2.284,8.99,5.879,12,9H730c9.42,0,40.231,2.567,46-1,7.579-2.146,18.624-13.989,12-26-2-3.625-7.368-5.79-10-9H155Zm3,53c-2.43,3.044-8.633,7.091-12,9a150.519,150.519,0,0,0-1,17l10,10c150.233,3.738,305.075,1,457,1H732c11.225,0,39.272,2.47,46-2,8.648-2.61,11.393-10.037,11-22-2.557-2.614-3.985-6.9-7-9-2.618-1.823-4.889-1.853-7-4H158Zm5,54c-2.138,1.583-6.663,1.453-9,3-4.5,1.635-5.9,6-9,9a117.7,117.7,0,0,0,1,16c4.506,2.99,8.259,8.348,14,10H774c7.151-2.293,10.359-8.2,15-13,0.147-3.872.537-9.715-1-12-1.286-4.494-4.621-8.549-9-10-8.389-5.617-31.588-2-46-2H322C269.512,349,213.763,351.51,163,348Zm-6,55c-3.631,3.8-8.172,7.412-12,11-0.328,13.31,2.97,15.515,7,23,37.405,4.964,84.2,2,125,2H637c22.893,0,51.466,2.388,71-2,3.87-5.7,8.55-7.366,9-17-2.076-3.134-1.7-8.146-4-11-2.088-2.585-5.919-3.1-8-6H157Z"/>
  <path id="Form_1_Kopie" data-name="Form 1 Kopie" class="cls-2" d="M686,933l93-1,35-48,20-179L659,585,548,549l-407-7-8,375,22,18Z"/>
  <path id="Farbf端llung_1_Kopie" data-name="Farbf端llung 1 Kopie" class="cls-3" d="M137,532H579c96.406,0,197.9-1.127,291,2,2.733,4.1,9.113,7.611,11,12V934h-1c-5.835,17.235-26.191,14-49,14H131c-2.213-3.259-7.057-3.909-9-7-2.066-3.285-1.306-4.643-4-7V546c6.195-4.664,5.864-11.7,17-12Zm15,25c-1.18.8-1.681,0.773-4,1q-0.5,1-1,2c-4.627,6.085-2,25.205-2,35v72c0,11.508-1.322,26.611,2,35,9.69,3.182,26.4,1,38,1H533q0.5-1,1-2c4.943-6.545,2-27.606,2-38,0-34.306,1.413-71.369-1-104h-2c-5.906-3.912-20.819-2-30-2H152Zm3,164c-7.959,9.847-11.459,8.453-9,27,3.6,2.284,8.99,5.879,12,9H730c9.42,0,40.231,2.567,46-1,7.579-2.146,18.624-13.989,12-26-2-3.625-7.368-5.79-10-9H155Zm3,53c-2.43,3.044-8.633,7.091-12,9a150.519,150.519,0,0,0-1,17l10,10c150.233,3.738,305.075,1,457,1H732c11.225,0,39.272,2.47,46-2,8.648-2.61,11.393-10.037,11-22-2.557-2.614-3.985-6.9-7-9-2.618-1.823-4.889-1.853-7-4H158Zm5,54c-2.138,1.583-6.663,1.453-9,3-4.5,1.635-5.9,6-9,9a117.7,117.7,0,0,0,1,16c4.506,2.99,8.259,8.348,14,10H774c7.151-2.293,10.359-8.2,15-13,0.147-3.872.537-9.715-1-12-1.286-4.494-4.621-8.549-9-10-8.389-5.617-31.588-2-46-2H322C269.512,829,213.763,831.51,163,828Zm-6,55c-3.631,3.8-8.172,7.412-12,11-0.328,13.31,2.97,15.515,7,23,37.405,4.964,84.2,2,125,2H637c22.893,0,51.466,2.388,71-2,3.87-5.7,8.55-7.366,9-17-2.076-3.134-1.7-8.146-4-11-2.088-2.585-5.919-3.1-8-6H157Z"/>
</svg>
